<?xml version="1.0" encoding="utf-8"?>
<!-- Generator: Adobe Illustrator 19.1.0, SVG Export Plug-In . SVG Version: 6.00 Build 0)  -->
<svg version="1.1" xmlns="http://www.w3.org/2000/svg" xmlns:xlink="http://www.w3.org/1999/xlink" x="0px" y="0px"
	 viewBox="0 0 250 250" style="enable-background:new 0 0 250 250;" xml:space="preserve">
<style type="text/css">
	.st0{fill:#DEDEA1;}
	.st1{fill:#DEDE49;}
</style>
<g id="Calque_1">
	<g>
		<path class="st0" d="M135.1,127.4c7.4-5,12.5-14.8,12.5-23.7c0-12.5-10.1-22.6-22.6-22.6c-12.5,0-22.6,10.1-22.6,22.6
			c0,8.9,5.1,18.7,12.5,23.7C97.2,131.9,84,147.3,84,158.7c0,13.5,81.9,13.5,81.9,0C166,147.3,152.8,131.9,135.1,127.4L135.1,127.4z
			 M125,168.8l-11.5-11.5l9.7-23.3h-0.1l-3.7-4.3c1.8,0.7,3.7,1.1,5.6,1.1c2,0,3.9-0.4,5.7-1l-3.7,4.3h-0.1l9.7,23.3L125,168.8z
			 M125,168.8"/>
		<path class="st1" d="M136.7,49.8h-7.1V30.1h-9.3v19.7h-7.1L125,69.9L136.7,49.8z M136.7,49.8"/>
		<path class="st1" d="M113.3,200.2h7.1v19.7h9.3v-19.7h7L125,180.1L113.3,200.2z M113.3,200.2"/>
		<path class="st1" d="M49.8,120.4H30.1v9.3h19.7v7L69.9,125l-20.1-11.7V120.4z M49.8,120.4"/>
		<path class="st1" d="M200.2,120.4v-7.1L180.1,125l20.1,11.7v-7.1h19.7v-9.2H200.2z M200.2,120.4"/>
	</g>
</g>
<g id="Calque_2">
</g>
</svg>
